<svg id="Layer_1" data-name="Layer 1" xmlns="http://www.w3.org/2000/svg" viewBox="0 0 1489.9 1489.9"><defs><style>.cls-1{stroke-dasharray:20.09 20.09}.cls-1,.cls-2,.cls-4{fill:none;stroke:#333535;stroke-miterlimit:10;stroke-width:5px}.cls-2{stroke-dasharray:20.09 20.09}</style></defs><path class="cls-4" d="m1.77 1.77 7.07 7.07"/><path style="fill:none;stroke:#333535;stroke-miterlimit:10;stroke-width:5px;stroke-dasharray:19.83 19.83" d="m22.86 22.86 1451.19 1451.19"/><path class="cls-4" d="m1481.06 1481.06 7.07 7.07M1.77 228.09h10"/><path class="cls-2" d="M31.85 228.09h1436.24"/><path class="cls-4" d="M1478.13 228.09h10M1.77 364.55h10"/><path class="cls-2" d="M31.85 364.55h1436.24"/><path class="cls-4" d="M1478.13 364.55h10M1.77 744.95h10"/><path class="cls-2" d="M31.85 744.95h1436.24"/><path class="cls-4" d="M1478.13 744.95h10M1.77 1125.35h10"/><path class="cls-2" d="M31.85 1125.35h1436.24"/><path class="cls-4" d="M1478.13 1125.35h10M1.77 1261.81h10"/><path class="cls-2" d="M31.85 1261.81h1436.24"/><path class="cls-4" d="M1478.13 1261.81h10M1261.81 1.77v10"/><path class="cls-1" d="M1261.81 31.86v1436.23"/><path class="cls-4" d="M1261.81 1478.13v10M1125.88 1.77v10"/><path class="cls-1" d="M1125.88 31.86v1436.23"/><path class="cls-4" d="M1125.88 1478.13v10M228.09 1.77v10"/><path class="cls-1" d="M228.09 31.86v1436.23"/><path class="cls-4" d="M228.09 1478.13v10M364.02 1.77v10"/><path class="cls-1" d="M364.02 31.86v1436.23"/><path class="cls-4" d="M364.02 1478.13v10"/></svg>