<svg class="w-14 h-14 mr-4" id="elephant" data-name="elephant" xmlns="http://www.w3.org/2000/svg" viewBox="0 0 117.94 106.81"><defs><style>.color { fill: #002828; } </style></defs><path class="color" d="M91.75 1.34c-3.99 0-7.69 1.26-11.03 3.74C77.63 1.41 74.69.29 74.31.15L73.88 0H44.07l-.43.15c-.38.13-3.32 1.25-6.41 4.93-3.34-2.48-7.04-3.74-11.03-3.74C12.94 1.34 1.32 15.41.83 16.01L0 17.02l2.96 13.04 2.04.1s3.46.23 7.51 2.73c2.46 1.52 4.64 3.56 6.48 6.07 2.35 3.21 4.15 7.2 5.36 11.87l1.27 4.91 3.35-3.81s2.34-2.65 6.07-6.78c1.3 3.14 2.01 5.7 2.26 8.02.32 3.04-.13 5.91-1.49 9.59l-1.14 3.09 4.24.64c-1.25 2.84-3.78 6.95-8.31 8.53l-6.09 2.12 5.8 2.83c.15.07 3.72 1.79 8.3 2.13.53.04 1.05.06 1.57.06 3.53 0 6.68-.92 9.34-2.71l.43 7.38-9.52 4.63-.06 1.62c-.14 4.13.9 7.38 3.1 9.65 3.89 4.02 10.27 4.06 15.93 4.06h.28c3.43 0 6.02-.88 7.7-2.62 1.61-1.67 1.79-3.52 1.79-4.16l.96-20.36c2.59 1.65 5.63 2.5 9.03 2.5.52 0 1.04-.02 1.57-.06 4.58-.34 8.15-2.06 8.3-2.13l5.8-2.83-6.09-2.12c-2.91-1.02-5.35-3.2-7.26-6.48-.46-.79-.83-1.56-1.13-2.25l2.95-.45-1.14-3.09c-1.36-3.69-1.81-6.56-1.49-9.59.24-2.32.96-4.88 2.26-8.02 3.73 4.13 6.04 6.75 6.07 6.78l3.35 3.81 1.27-4.91c1.18-4.58 2.94-8.52 5.24-11.7 1.8-2.5 3.94-4.55 6.35-6.09 4.04-2.57 7.56-2.87 7.76-2.88l2.02-.07L117.95 17l-.83-1.01c-.49-.6-12.11-14.67-25.37-14.67ZM39.13 76.77q-.51-.03-.99-.09c3.37-3 5.26-6.85 6.21-9.34l4.49.68.26 4.52c-2.39 3.08-5.74 4.5-9.97 4.23m25.43 6.77h-4.2v5.37h3.95c-.01.27-.45 9.43-.48 10.1-.02.5.07 1.09-.32 1.47-.42.41-1 .58-1.55.71-.74.18-1.52.23-2.28.23h-.14c-1.11 0-2.25 0-3.38-.03l-1.88-32.56-.03-.59h11.06l-.02.35-.29 6.19h-7.01v5.37h6.76l-.16 3.38Zm-15.17 9.54 4.67 8.21c-2.8-.22-5.32-.8-6.75-2.28-.92-.95-1.44-2.32-1.57-4.16l3.65-1.78Zm16.15-30.2H53.92l-.21-3.57h12zm15.64 13.79c-.28.03-.56.06-.84.08-4.16.31-7.48-1.01-9.88-3.92l.24-5.06 4.2-.64c.92 2.48 2.83 6.46 6.29 9.54Zm29.42-51.58c-1.87.39-4.81 1.26-7.99 3.23-3.05 1.89-5.74 4.4-7.99 7.47-1.92 2.62-3.52 5.64-4.77 9.04-1.48-1.66-3.43-3.82-5.71-6.32l-2.68-2.94-1.73 3.58c-2.66 5.5-4.02 9.66-4.42 13.47-.31 2.93-.06 5.76.79 8.9l-5.16.78.48-10.08a2.685 2.685 0 0 0-2.56-2.81 2.685 2.685 0 0 0-2.81 2.56v.13l-.09 1.84... [truncated]" /><path class="color" d="M71.45 28.83c-2.84 0-5.15 2.31-5.15 5.15v7.55c1.27-1.27 2.44-2.43 3.51-3.5.9.57 2.09.85 3.36.7 2.48-.3 4.3-2.13 4.06-4.09-.12-.98-.72-1.8-1.61-2.35 2.4-2.35 3.57-3.46 3.57-3.46h-7.75Zm-23.56 0h-7.75s1.17 1.12 3.57 3.46c-.89.54-1.49 1.37-1.61 2.35-.24 1.96 1.58 3.79 4.06 4.09 1.27.15 2.46-.13 3.36-.7 1.08 1.07 2.25 2.24 3.51 3.5v-7.55c0-2.84-2.31-5.15-5.15-5.15Zm-15.9-12.84c-.12.31-3 7.71-1.38 14.14l5.21-1.32c-1.2-4.73 1.14-10.79 1.16-10.85l-2.5-.98-2.5-.99Zm48.75 1.98c.02.06 2.36 6.12 1.16 10.85l5.21 1.32c1.63-6.43-1.25-13.83-1.38-14.14l-5 1.97Z" /></svg>