<svg class="w-14 h-14 mr-4" id="giraffe" data-name="giraffe" xmlns="http://www.w3.org/2000/svg" viewBox="0 0 100.75 108.24"><defs><style>.path { fill: #002828; } </style></defs><path class="path" d="M96.04 16.01c-2.49-.44-4.9-.66-7.18-.66-12.53 0-19.23 6.53-22.59 11.76l-2.54-4.51c2.98-7.72 4.39-19.05 4.45-19.55l.27-2.23-2.2-.49C65.28.11 64.28 0 63.26 0c-2.76 0-4.76.8-4.98.89l-1.32.55-.2 1.41c-.87 6.32-2.94 10.41-4.52 12.72-.68.99-1.33 1.75-1.86 2.31-.68-.72-1.31-1.49-1.86-2.31-1.58-2.31-3.64-6.39-4.52-12.72l-.2-1.41-1.32-.55C42.26.8 40.26 0 37.5 0c-1.02 0-2.03.11-2.99.33l-2.2.49.27 2.23c.06.5 1.47 11.83 4.45 19.55l-2.54 4.51c-3.36-5.23-10.06-11.76-22.59-11.76-2.28 0-4.69.22-7.18.66L0 16.83l3.38 3.38h.06s3.66 3.76 5.08 9.14c.76 2.9 2.8 5.96 5.46 8.19 3.36 2.82 7.67 4.37 12.48 4.5-.03.41-.35.84-.89 1.56-1.05 1.37-2.63 3.45-2.1 7.06.51 3.42 2.85 7.76 7.38 13.67 4.55 5.94 3.52 11.21 2.43 16.8-.85 4.37-1.73 8.9.21 13.54 2.11 5.05 7.17 9.22 15.91 13.12l1.01.45 1.01-.45c8.74-3.9 13.8-8.07 15.91-13.12 1.94-4.64 1.06-9.16.21-13.54-1.09-5.58-2.12-10.86 2.43-16.8 4.53-5.91 6.87-10.25 7.38-13.67.54-3.62-1.05-5.69-2.1-7.06-.55-.72-.86-1.14-.89-1.56 4.82-.13 9.12-1.68 12.48-4.5 2.65-2.23 4.7-5.29 5.46-8.19 1.42-5.38 5.04-9.1 5.07-9.13l3.38-3.38zM32.27 54.5c-.62-.14-1.17-.44-1.5-.85-.09-.11-.29-.39-.25-.63.07-.34.71-.7 1.54-.7.22 0 .45.02.67.07 1.23.27 1.83 1.11 1.75 1.48-.07.34-.71.7-1.54.7-.22 0-.45-.02-.67-.07m37.74-.84c-.33.4-.88.71-1.5.85-.22.05-.45.07-.67.07-.83 0-1.47-.36-1.54-.7-.05-.24.16-.53.25-.64.33-.4.88-.71 1.5-.85.22-.05.45-.07.67-.07.83 0 1.47.36 1.54.7.05.24-.16.53-.25.64m17.52-25.58c-.39 1.5-1.61 3.77-3.85 5.64-2.65 2.22-6 3.35-9.96 3.35-.62 0-1.26-.03-1.91-.08l-3.2-.28.53 3.17c.04.23.07.45.1.68-1.05-.47-2.16-.89-3.31-1.23-1.31-.4-2.7.35-3.1 1.66s.35 2.7 1.66 3.1c4.26 1.28 6.66 3.34 7.24 3.89-.9-.4-1.92-.62-3-.62-.57 0-1.15.06-1.72.19-1.72.37-3.25 1.28-4.29 2.55-1.17 1.42-1.63 3.19-1.27 4.85.56 2.58 2.96 4.42 5.92 4.6q-.63.855-1.32 1.77c-2.65 3.46-4.07 7.09-4.34 11.12-.23 3.44.38 6.6.98 9.66.78 3.98 1.45 7.42.09 10.67-1.5 3.58-5.54 6.87-12.34 10.04-6.8-3.17-10.84-6.46-12.34-10.04-1.36-3.25-.69-6.69.09-10.67.6-3.06 1.1-6.22.87-9.66-.27-4.03-1.69-7.66-4.34-11.12-.69-.915-1.32-1.77-1.32-1.77q.63-.855 5.92-4.6c.36-1.66-.1-3.43-1.27-4.85-1.04-1.27-2.57-2.18-4.29-2.55-.57-.13-1.15-.19-1.72-.19.92 0 1.77.16 2.55.45.58.21 1.12.48 1.6.79-1.15-.35-2.36-.54-3.6-.54-4.26-1.28-6.66-3.34-7.24-3.89 1.31-.4 2.7-.35 3.1-1.66s-.35-2.7-1.66-3.1c-1.15-.34-2.26-.76-3.31-1.23.03-.23.06-.45.1-.68l.53-3.17-3.2.28c-.65.05-1.29.08-1.91.08-3.96 0-7.31-1.13-9.96-3.35-2.24-1.87-3.46-4.14-3.85-5.64.39-1.5 1.61-3.77 3.85-5.64 2.65-2.22 6-3.35 9.96-3.35.62 0 1.26.03 1.91.08l3.2.28-.53-3.17c-.04-.23-.07-.45-.1-.68 1.05.47 2.16.89 3.31 1.23 1.31.4 2.7-.35 3.1-1.66s-.35-2.7-1.66-3.1c-4.26-1.28-6.66-3.34-7.24-3.89.9.4 1.92.62 3 .62.57 0 1.15-.06 1.72-.19 1.72-.37 3.25-1.28 4.29-2.55 1.17-1.42 1.63-3.19 1.27-4.85-.56-2.58-2.96-4.42-5.92-4.6q.63-.855 1.32-1.77c2.65-3.46 4.07-7.09 4.34-11.12.23-3.44-.38-6.6-.98-9.66-.78-3.98-1.45-7.42-.09-10.67 1.5-3.58 5.54-6.87 12.34-10.04 6.8 3.17 10.84 6.46 12.34 10.04 1.36 3.25.69 6.69-.09 10.67-.6 3.06-1.1 6.22-.87 9.66.27 4.03 1.69 7.66 4.34 11.12.69.915 1.32 1.77 1.32 1.77q-.63.855-5.92 4.6c-.36 1.66.1 3.43 1.27 4.85 1.04 1.27 2.57 2.18 4.29 2.55.57.13 1.15.19 1.72.19-.92 0-1.77-.16-2.55-.45-.58-.21-1.12-.48-1.6-.79 1.15.35 2.36.54 3.6.54 4.26 1.28 6.66 3.34 7.24 3.89-1.31.4-2.7.35-3.1-1.66s.35-2.7 1.66-3.1c1.15-.34 2.26-.76 3.31-1.23-.03.23-.06.45-.1.68l-.53 3.17 3.2-.28c.65-.05 1.29-.08 1.91-.08 3.96 0 7.31-1.13 9.96 3.35 2.24 1.87 3.46 4.14 3.85 5.64Z"/><path class="path" d="M41.69 90.05c-.71-.05-1.15.77-.73 1.34 4.13 5.68 7.64 7.57 6.62 2.92-.74-3.35-3.89-4.12-5.88-4.27Zm17.37 0c-1.99.14-5.15.91-5.88 4.27-1.02 4.64 2.49 2.76 6.62-2.92.42-.58-.02-1.4-.73-1.34Zm-3.78-4.62c.47-.82.25-1.98-.48-2.42-1.17-.71-2.81-1.37-4.78-1.29-1.63.07-2.99.62-4.05 1.27-.74.45-.98 1.61-.5 2.44.38.67 1.09.89 1.68.53.74-.45 1.75-.88 2.96-.93 1.43-.07 2.61.41 3.46.92.6.36 1.32.16 1.71-.51Z" /></svg>