<?xml version="1.0" encoding="UTF-8"?>
<svg id="Layer_2" data-name="Layer 2" xmlns="http://www.w3.org/2000/svg" viewBox="0 0 542.64 156.45">
  <defs>
    <style>
      .cls-1 {
        fill: #143f66;
      }
    </style>
  </defs>
  <g id="Layer_1-2" data-name="Layer 1">
    <g>
      <path class="cls-1" d="M84.52,148.44c3.25-2.75,19.19-6.61,32.55-7.8,11.19-.99,22.33-.24,33.69,1.68.54-2.99,1.06-5.83,1.66-9.13-24.92-1.98-48.37,1.56-69.78,14.77,1.37-2.32,10.47-8.23,17.69-10.81,6.72-2.41,13.55-4.71,20.51-6.2,6.89-1.48,14.02-1.9,21.3-2.82-.7-2.59-1.39-5.39-2.33-8.11-.13-.39-1.49-.6-2.24-.5-8.51,1.06-16.84,2.94-24.86,6.02-22.66,8.91-32.84,22.79-33.27,23.39-.43-.6-10.61-14.48-33.28-23.38-8.02-3.07-16.35-4.95-24.86-6.01-.75-.1-2.11.1-2.24.5-.94,2.72-1.62,5.52-2.32,8.11,7.28.91,14.4,1.33,21.29,2.81,6.96,1.49,13.79,3.79,20.52,6.19,7.22,2.58,16.32,8.48,17.69,10.8-21.42-13.19-44.87-16.73-69.79-14.74.6,3.3,1.12,6.13,1.67,9.13,11.36-1.93,22.5-2.68,33.69-1.69,13.37,1.18,29.31,5.04,32.56,7.78-24.84-7.26-49.43-6.9-74.35.17,1.72,2.47,3.27,4.59,4.68,6.78.71,1.11,1.35,1.25,2.67.87,7.56-2.22,15.09-4.69,22.79-6.26,14.07-2.88,28.31-3.06,42.56-1.05,1.21.17,2.1.5,2.62,1.86.52,1.13,2.31,1.81,4.1,1.83h.04c1.79-.02,3.58-.7,4.1-1.83.52-1.37,1.41-1.69,2.61-1.86,14.25-2.01,28.48-1.84,42.56,1.04,7.71,1.57,15.23,4.04,22.79,6.26,1.32.38,1.96.24,2.67-.87,1.41-2.2,2.96-4.31,4.67-6.79-24.92-7.07-49.51-7.41-74.35-.14Z"/>
      <path class="cls-1" d="M48.13,66.68l-5.89,1.67v19.19l37.01-14.31,37.01,14.31v-19.19l-5.89-1.67v-7.33h9.04v-5.21H39.09v5.21h9.04v7.33ZM51.52,59.35h55.45v6.37l-.27-.08h-54.91l-.27.08v-6.37Z"/>
      <polygon class="cls-1" points="89.51 33.24 68.98 33.24 67.54 40.79 90.96 40.79 89.51 33.24"/>
      <polygon class="cls-1" points="55.32 43.69 52.71 51.25 105.78 51.25 103.18 43.69 55.32 43.69"/>
      <path class="cls-1" d="M33.64,118.43c.3.05,20.59,3.17,36.63,16.59,3.44,2.87,6.16,6.28,8.97,10.17,0,0,0,0,0,0,4.17-5.77,9.76-10.4,14.98-14.02,13.75-9.53,28.54-12.38,30.65-12.75.01-.02.03-.04.04-.06,1.25-1.92,6.14-9.82,9.24-20.48l-53.04-20.53-1.86,37.96-1.86-37.96-53.05,20.53c3.15,10.82,8.13,18.79,9.3,20.56h0Z"/>
      <polygon class="cls-1" points="72.55 20.6 79.25 17.08 85.94 20.6 84.66 13.15 90.08 7.87 82.59 6.78 79.25 0 75.9 6.78 68.41 7.87 73.83 13.15 72.55 20.6"/>
      <polygon class="cls-1" points="99.46 19.67 103.92 17.33 108.37 19.67 107.52 14.72 111.12 11.21 106.14 10.48 103.92 5.98 101.69 10.48 96.71 11.21 100.31 14.72 99.46 19.67"/>
      <polygon class="cls-1" points="50.13 19.67 54.58 17.33 59.03 19.67 58.18 14.72 61.78 11.21 56.8 10.48 54.58 5.98 52.35 10.48 47.38 11.21 50.98 14.72 50.13 19.67"/>
      <polygon class="cls-1" points="210.49 21.05 198.97 45.45 198.97 21.05 190.17 21.05 190.17 77.05 198.97 77.05 198.97 59.85 201.69 54.73 210.25 77.05 219.29 77.05 207.05 46.01 219.29 21.05 210.49 21.05"/>
      <path class="cls-1" d="M230.57,66.89h10.8l1.52,10.16h8.88l-8.96-56h-12.88l-8.96,56h8.08l1.52-10.16ZM235.92,30.97l4.24,28.32h-8.48l4.24-28.32Z"/>
      <polygon class="cls-1" points="262.49 77.05 271.28 77.05 271.28 29.05 280.49 29.05 280.49 21.05 253.28 21.05 253.28 29.05 262.49 29.05 262.49 77.05"/>
      <path class="cls-1" d="M296.96,77.69c4.32,0,7.63-1.21,9.92-3.64,2.29-2.43,3.44-5.91,3.44-10.44v-29.12c0-4.53-1.15-8.01-3.44-10.44-2.29-2.43-5.6-3.64-9.92-3.64s-7.63,1.21-9.92,3.64c-2.29,2.43-3.44,5.91-3.44,10.44v29.12c0,4.53,1.15,8.01,3.44,10.44,2.29,2.43,5.6,3.64,9.92,3.64ZM292.41,33.93c0-2.03.41-3.45,1.24-4.28.83-.83,1.93-1.24,3.32-1.24s2.49.41,3.32,1.24c.83.83,1.24,2.25,1.24,4.28v30.24c0,2.03-.41,3.45-1.24,4.28s-1.93,1.24-3.32,1.24-2.49-.41-3.32-1.24-1.24-2.25-1.24-4.28v-30.24Z"/>
      <polygon class="cls-1" points="348.41 21.05 341.68 66.73 334.96 21.05 326.08 21.05 334.72 77.05 347.84 77.05 356.49 21.05 348.41 21.05"/>
      <rect class="cls-1" x="360.56" y="21.05" width="8.8" height="56"/>
      <path class="cls-1" d="M401.28,63.61v-7.44h-8.32v8c0,2.03-.41,3.44-1.24,4.24-.83.8-1.93,1.2-3.32,1.2s-2.49-.4-3.32-1.2c-.83-.8-1.24-2.21-1.24-4.24v-30.24c0-2.03.41-3.45,1.24-4.28.83-.83,1.93-1.24,3.32-1.24s2.49.41,3.32,1.24c.83.83,1.24,2.25,1.24,4.28v6h8.32v-5.44c0-4.53-1.11-8.01-3.32-10.44-2.21-2.43-5.48-3.64-9.8-3.64s-7.59,1.21-9.8,3.64c-2.21,2.43-3.32,5.91-3.32,10.44v29.12c0,4.53,1.11,8.01,3.32,10.44,2.21,2.43,5.48,3.64,9.8,3.64s7.59-1.21,9.8-3.64c2.21-2.43,3.32-5.91,3.32-10.44Z"/>
      <polygon class="cls-1" points="404.08 29.05 413.28 29.05 413.28 77.05 422.08 77.05 422.08 29.05 431.28 29.05 431.28 21.05 404.08 21.05 404.08 29.05"/>
      <path class="cls-1" d="M447.76,20.41c-4.32,0-7.63,1.21-9.92,3.64-2.29,2.43-3.44,5.91-3.44,10.44v29.12c0,4.53,1.15,8.01,3.44,10.44,2.29,2.43,5.6,3.64,9.92,3.64s7.63-1.21,9.92-3.64c2.29-2.43,3.44-5.91,3.44-10.44v-29.12c0-4.53-1.15-8.01-3.44-10.44-2.29-2.43-5.6-3.64-9.92-3.64ZM452.32,64.17c0,2.03-.41,3.45-1.24,4.28s-1.93,1.24-3.32,1.24-2.49-.41-3.32-1.24-1.24-2.25-1.24-4.28v-30.24c0-2.03.41-3.45,1.24-4.28.83-.83,1.93-1.24,3.32-1.24s2.49.41,3.32,1.24c.83.83,1.24,2.25,1.24,4.28v30.24Z"/>
      <path class="cls-1" d="M493.2,70.25v-8.64c0-2.93-.41-5.43-1.24-7.48-.83-2.05-2.36-3.53-4.6-4.44,3.84-1.81,5.76-5.6,5.76-11.36v-4.4c0-4.32-1.03-7.55-3.08-9.68-2.05-2.13-5.38-3.2-9.96-3.2h-13.28v56h8.8v-22.8h3.04c2.03,0,3.49.53,4.4,1.6.91,1.07,1.36,2.91,1.36,5.52v8.8c0,1.12.01,2.05.04,2.8.03.75.08,1.36.16,1.84.08.48.17.88.28,1.2.11.32.21.67.32,1.04h8.96c-.43-1.07-.69-2.12-.8-3.16-.11-1.04-.16-2.25-.16-3.64ZM484.32,40.33c0,2.24-.47,3.79-1.4,4.64-.93.85-2.23,1.28-3.88,1.28h-3.44v-17.2h4.24c1.55,0,2.68.45,3.4,1.36.72.91,1.08,2.37,1.08,4.4v5.52Z"/>
      <rect class="cls-1" x="498.96" y="21.05" width="8.8" height="56"/>
      <path class="cls-1" d="M533.68,21.05h-12.88l-8.96,56h8.08l1.52-10.16h10.8l1.52,10.16h8.88l-8.96-56ZM522.56,59.29l4.24-28.32,4.24,28.32h-8.48Z"/>
      <path class="cls-1" d="M196.81,91.05l-8.96,56h8.08l1.52-10.16h10.8l1.52,10.16h8.88l-8.96-56h-12.88ZM198.57,129.29l4.24-28.32,4.24,28.32h-8.48Z"/>
      <path class="cls-1" d="M235.13,90.41c-4.32,0-7.59,1.21-9.8,3.64-2.21,2.43-3.32,5.91-3.32,10.44v29.12c0,4.53,1.11,8.01,3.32,10.44,2.21,2.43,5.48,3.64,9.8,3.64s7.59-1.21,9.8-3.64c2.21-2.43,3.32-5.91,3.32-10.44v-7.44h-8.32v8c0,2.03-.41,3.44-1.24,4.24-.83.8-1.93,1.2-3.32,1.2s-2.49-.4-3.32-1.2c-.83-.8-1.24-2.21-1.24-4.24v-30.24c0-2.03.41-3.45,1.24-4.28.83-.83,1.93-1.24,3.32-1.24s2.49.41,3.32,1.24c.83.83,1.24,2.25,1.24,4.28v6h8.32v-5.44c0-4.53-1.11-8.01-3.32-10.44-2.21-2.43-5.48-3.64-9.8-3.64Z"/>
      <path class="cls-1" d="M260.25,91.05l-8.96,56h8.08l1.52-10.16h10.8l1.52,10.16h8.88l-8.96-56h-12.88ZM262,129.29l4.24-28.32,4.24,28.32h-8.48Z"/>
      <path class="cls-1" d="M300.08,91.05h-13.92v56h13.92c4.43,0,7.72-1.17,9.88-3.52,2.16-2.35,3.24-5.79,3.24-10.32v-28.32c0-4.53-1.08-7.97-3.24-10.32-2.16-2.35-5.45-3.52-9.88-3.52ZM304.41,133.61c0,2.03-.4,3.44-1.2,4.24-.8.8-1.89,1.2-3.28,1.2h-4.96v-40h4.96c1.39,0,2.48.4,3.28,1.2.8.8,1.2,2.21,1.2,4.24v29.12Z"/>
      <polygon class="cls-1" points="318.8 147.05 342.8 147.05 342.8 139.05 327.6 139.05 327.6 122.65 339.68 122.65 339.68 114.65 327.6 114.65 327.6 99.05 342.8 99.05 342.8 91.05 318.8 91.05 318.8 147.05"/>
      <polygon class="cls-1" points="366.88 130.81 360.4 91.05 348.16 91.05 348.16 147.05 355.84 147.05 355.84 107.45 362.4 147.05 370.72 147.05 376.8 106.89 376.8 147.05 385.12 147.05 385.12 91.05 372.88 91.05 366.88 130.81"/>
      <polygon class="cls-1" points="404.56 116.57 397.84 91.05 388.64 91.05 399.76 128.49 399.76 147.05 408.56 147.05 408.56 128.49 419.68 91.05 411.28 91.05 404.56 116.57"/>
    </g>
  </g>
</svg>