<svg class="w-14 h-14 mr-4" id="lion" data-name="lion" xmlns="http://www.w3.org/2000/svg" viewBox="0 0 94.35 107.73"><defs><style>.color { fill: #002828; } </style></defs><path class="color" d="M36.61 41.09h-7.24s1.1 1.05 3.34 3.24c-.83.51-1.4 1.28-1.51 2.19-.22 1.83 1.48 3.54 3.8 3.82 1.19.14 2.3-.12 3.14-.65 1.01 1 2.1 2.09 3.28 3.27V45.9c0-2.66-2.15-4.81-4.81-4.81m26.55 5.43c-.11-.91-.68-1.68-1.51-2.19 2.24-2.19 3.34-3.24 3.34-3.24h-7.24c-2.66 0-4.81 2.15-4.81 4.81v7.06c1.18-1.18 2.28-2.27 3.28-3.27.84.53 1.95.79 3.14.65 2.32-.28 4.02-1.99 3.8-3.82" /><path class="color" d="M90.67 28.35c-2.3-5.14-5.65-9.55-9.97-13.11a38.5 38.5 0 0 0-8.77-5.41l7.13-3.15-4.01-2.51C70.62 1.4 65.14 0 58.76 0c-5.4 0-9.88 1.02-11.59 1.47C45.46 1.02 40.97 0 35.58 0 29.2 0 23.72 1.4 19.29 4.17l-4.01 2.51 7.13 3.15c-2.6 1.16-5.7 2.88-8.77 5.41-4.32 3.56-7.67 7.97-9.97 13.11h.01C.84 34.7-.36 42.16.09 50.51l.16 3.01 4.05-.97c0 2.48.16 6.11.9 10.24.79 4.47 2.09 8.62 3.86 12.33 2.24 4.69 5.23 8.69 8.89 11.88l2.4 2.09 1.38-2.65c1.18 1.71 2.79 3.86 4.78 6.16 4.24 4.91 11.11 11.46 19.76 14.78l.9.35.9-.35c8.65-3.32 15.52-9.87 19.76-14.78 1.99-2.3 3.59-4.45 4.78-6.16l1.38 2.65 2.4-2.09c3.67-3.19 6.66-7.19 8.89-11.88 1.77-3.71 3.06-7.86 3.86-12.33.73-4.13.9-7.75.9-10.24l4.05.97.16-3.01c.46-8.36-.75-15.81-3.58-22.16M76.35 18.2c.39.29.77.59 1.16.91 3.72 3.06 6.6 6.85 8.58 11.28h.01c.23.53.45 1.07.66 1.61-4.46.22-7.55 1.88-9.5 3.44-.38.3-.72.61-1.04.92-1.44-3.63-3.7-7.4-7.25-10.3l-.32-.26c.54-2.07 2.25-5.7 7.7-7.6M60.88 60c1.38 2.2 2.99 5.53 2.82 8.89-.12 2.44-1.14 4.59-3.12 6.53l-1.2-.44-11.37-4.19c.21-1.65.68-3.66 1.73-4.41 1.9-1.34 5.13-3.46 0-3.79 0 0-1.23.67-2.57.67s-2.57-.67-2.57-.67c-5.13.33-1.9 2.45 0 3.79 1.05.74 1.52 2.76 1.73 4.41l-11.37 4.19-1.2.44c-1.97-1.94-2.99-4.08-3.12-6.51-.34-6.53 5.9-12.93 5.97-13l-3.56-3.54c-.16.16-2 2.03-3.81 4.93l-8.59-9.44c.21-3.02 1.4-12.62 7.92-17.93h.01c4.38-3.56 10.47-4.6 18.11-3.08l.49.1.49-.1c7.64-1.52 13.74-.48 18.11 3.08 6.52 5.31 7.71 14.91 7.92 17.93l-8.59 9.44c-1.81-2.89-3.66-4.77-3.81-4.93l-3.56 3.54s1.61 1.65 3.14 4.09m-5.82 21.94c-.06.03-.16.07-.4.07-.57 0-1.44-.25-2.36-.51-1.4-.4-3.15-.89-5.11-.89s-3.71.49-5.11.89c-.92.26-1.79.51-2.36.51-.24 0-.34-.04-.4-.08-.26-.37-.32-1.73-.09-3.16l7.97-2.93 7.96 2.93c.21 1.37.19 2.77-.09 3.17ZM26.72 6.26h.02c2.63-.82 5.58-1.24 8.85-1.24 5.98 0 10.82 1.44 10.86 1.45l.73.22.73-.22s4.88-1.45 10.86-1.45c3.26 0 6.22.41 8.85 1.24l-11.01 4.87 7.96 1.49s2.89.56 6.65 2.43c-3.19 1.84-5.03 4.19-6.09 6.13-.37.68-.67 1.35-.9 1.98-4.75-2.11-10.46-2.5... [truncated]" /></svg>