<?xml version="1.0" encoding="UTF-8"?>
<svg id="Layer_2" data-name="Layer 2" xmlns="http://www.w3.org/2000/svg" viewBox="0 0 4317.29 1489.9">
  <defs>
    <style>
      .cls-1 {
        stroke-dasharray: 18.99 18.99;
      }

      .cls-1, .cls-2, .cls-3, .cls-4, .cls-5, .cls-6, .cls-7, .cls-8, .cls-9, .cls-10 {
        fill: none;
        stroke: gray;
        stroke-miterlimit: 10;
        stroke-width: 5px;
      }

      .cls-2 {
        stroke-dasharray: 19.88 19.88;
      }

      .cls-3 {
        stroke-dasharray: 18.99 18.99;
      }

      .cls-5 {
        stroke-dasharray: 20.09 20.09;
      }

      .cls-6 {
        stroke-dasharray: 19.88 19.88;
      }

      .cls-11 {
        fill: #002828;
      }

      .cls-7 {
        stroke-dasharray: 20.09 20.09;
      }

      .cls-8 {
        stroke-dasharray: 20.74 20.74;
      }

      .cls-9 {
        stroke-dasharray: 19.83 19.83;
      }

      .cls-10 {
        stroke-dasharray: 20.05 20.05;
      }
    </style>
  </defs>
  <g id="Layer_1-2" data-name="Layer 1">
    <path class="cls-11" d="M4317.29,228.09h-1033.73v1033.73h1033.73V228.09ZM4181.28,744.95h-380.85l380.85,380.85h-761.7V364.1h761.7v380.85Z"/>
    <g>
      <g>
        <line class="cls-4" x1="1.77" y1="1.77" x2="8.84" y2="8.84"/>
        <line class="cls-9" x1="22.86" y1="22.86" x2="1474.05" y2="1474.05"/>
        <line class="cls-4" x1="1481.06" y1="1481.06" x2="1488.13" y2="1488.13"/>
      </g>
      <g>
        <line class="cls-4" x1="1.77" y1="228.09" x2="11.77" y2="228.09"/>
        <line class="cls-7" x1="31.85" y1="228.09" x2="1468.09" y2="228.09"/>
        <line class="cls-4" x1="1478.13" y1="228.09" x2="1488.13" y2="228.09"/>
      </g>
      <g>
        <line class="cls-4" x1="1.77" y1="364.55" x2="11.77" y2="364.55"/>
        <line class="cls-7" x1="31.85" y1="364.55" x2="1468.09" y2="364.55"/>
        <line class="cls-4" x1="1478.13" y1="364.55" x2="1488.13" y2="364.55"/>
      </g>
      <g>
        <line class="cls-4" x1="1.77" y1="744.95" x2="11.77" y2="744.95"/>
        <line class="cls-7" x1="31.85" y1="744.95" x2="1468.09" y2="744.95"/>
        <line class="cls-4" x1="1478.13" y1="744.95" x2="1488.13" y2="744.95"/>
      </g>
      <g>
        <line class="cls-4" x1="1.77" y1="1125.35" x2="11.77" y2="1125.35"/>
        <line class="cls-7" x1="31.85" y1="1125.35" x2="1468.09" y2="1125.35"/>
        <line class="cls-4" x1="1478.13" y1="1125.35" x2="1488.13" y2="1125.35"/>
      </g>
      <g>
        <line class="cls-4" x1="1.77" y1="1261.81" x2="11.77" y2="1261.81"/>
        <line class="cls-7" x1="31.85" y1="1261.81" x2="1468.09" y2="1261.81"/>
        <line class="cls-4" x1="1478.13" y1="1261.81" x2="1488.13" y2="1261.81"/>
      </g>
      <g>
        <line class="cls-4" x1="1261.81" y1="1.77" x2="1261.81" y2="11.77"/>
        <line class="cls-5" x1="1261.81" y1="31.86" x2="1261.81" y2="1468.09"/>
        <line class="cls-4" x1="1261.81" y1="1478.13" x2="1261.81" y2="1488.13"/>
      </g>
      <g>
        <line class="cls-4" x1="1125.88" y1="1.77" x2="1125.88" y2="11.77"/>
        <line class="cls-5" x1="1125.88" y1="31.86" x2="1125.88" y2="1468.09"/>
        <line class="cls-4" x1="1125.88" y1="1478.13" x2="1125.88" y2="1488.13"/>
      </g>
      <g>
        <line class="cls-4" x1="228.09" y1="1.77" x2="228.09" y2="11.77"/>
        <line class="cls-5" x1="228.09" y1="31.86" x2="228.09" y2="1468.09"/>
        <line class="cls-4" x1="228.09" y1="1478.13" x2="228.09" y2="1488.13"/>
      </g>
      <g>
        <line class="cls-4" x1="364.02" y1="1.77" x2="364.02" y2="11.77"/>
        <line class="cls-5" x1="364.02" y1="31.86" x2="364.02" y2="1468.09"/>
        <line class="cls-4" x1="364.02" y1="1478.13" x2="364.02" y2="1488.13"/>
      </g>
    </g>
    <g>
      <g>
        <polyline class="cls-4" points="1878.98 228.09 1868.98 228.09 1868.98 238.09"/>
        <line class="cls-2" x1="1868.98" y1="257.96" x2="1868.98" y2="1241.88"/>
        <polyline class="cls-4" points="1868.98 1251.81 1868.98 1261.81 1878.98 1261.81"/>
        <line class="cls-6" x1="1898.86" y1="1261.81" x2="2882.77" y2="1261.81"/>
        <polyline class="cls-4" points="2892.71 1261.81 2902.71 1261.81 2902.71 1251.81"/>
        <line class="cls-2" x1="2902.71" y1="1231.94" x2="2902.71" y2="248.02"/>
        <polyline class="cls-4" points="2902.71 238.09 2902.71 228.09 2892.71 228.09"/>
        <line class="cls-6" x1="2872.83" y1="228.09" x2="1888.92" y2="228.09"/>
      </g>
      <g>
        <polyline class="cls-4" points="2766.69 734.96 2766.69 744.96 2756.69 744.96"/>
        <line class="cls-1" x1="2737.7" y1="744.96" x2="2405.35" y2="744.96"/>
        <polyline class="cls-4" points="2395.85 744.96 2385.85 744.96 2392.92 752.03"/>
        <line class="cls-8" x1="2407.59" y1="766.69" x2="2752.29" y2="1111.39"/>
        <polyline class="cls-4" points="2759.62 1118.73 2766.69 1125.79 2766.69 1125.8 2756.69 1125.8"/>
        <line class="cls-10" x1="2736.64" y1="1125.8" x2="2025.02" y2="1125.8"/>
        <polyline class="cls-4" points="2014.99 1125.8 2004.99 1125.8 2004.99 1115.8"/>
        <line class="cls-10" x1="2004.99" y1="1095.76" x2="2004.99" y2="384.13"/>
        <polyline class="cls-4" points="2004.99 374.11 2004.99 364.11 2014.99 364.11"/>
        <line class="cls-10" x1="2035.04" y1="364.11" x2="2746.66" y2="364.11"/>
        <polyline class="cls-4" points="2756.69 364.11 2766.69 364.11 2766.69 374.11"/>
        <line class="cls-3" x1="2766.69" y1="393.1" x2="2766.69" y2="725.46"/>
      </g>
    </g>
  </g>
</svg>