<?xml version="1.0" encoding="UTF-8"?>
<svg id="Layer_2" data-name="Layer 2" xmlns="http://www.w3.org/2000/svg" viewBox="0 0 1489.9 4317.29">
  <defs>
    <style>
      .cls-1 {
        stroke-dasharray: 18.99 18.99;
      }

      .cls-1, .cls-2, .cls-3, .cls-4, .cls-5, .cls-6, .cls-7, .cls-8, .cls-9, .cls-10 {
        fill: none;
        stroke: gray;
        stroke-miterlimit: 10;
        stroke-width: 5px;
      }

      .cls-2 {
        stroke-dasharray: 19.88 19.88;
      }

      .cls-3 {
        stroke-dasharray: 18.99 18.99;
      }

      .cls-5 {
        stroke-dasharray: 20.09 20.09;
      }

      .cls-6 {
        stroke-dasharray: 19.88 19.88;
      }

      .cls-11 {
        fill: #002828;
      }

      .cls-7 {
        stroke-dasharray: 20.09 20.09;
      }

      .cls-8 {
        stroke-dasharray: 20.74 20.74;
      }

      .cls-9 {
        stroke-dasharray: 19.83 19.83;
      }

      .cls-10 {
        stroke-dasharray: 20.05 20.05;
      }
    </style>
  </defs>
  <g id="Layer_1-2" data-name="Layer 1">
    <path class="cls-11" d="M1261.81,3283.56H228.09v1033.73h1033.73v-1033.73ZM1125.8,3800.43h-380.85l380.85,380.85H364.1v-761.7h761.7v380.85Z"/>
    <g>
      <g>
        <line class="cls-4" x1="1.77" y1="1.77" x2="8.84" y2="8.84"/>
        <line class="cls-9" x1="22.86" y1="22.86" x2="1474.05" y2="1474.05"/>
        <line class="cls-4" x1="1481.06" y1="1481.06" x2="1488.13" y2="1488.13"/>
      </g>
      <g>
        <line class="cls-4" x1="1.77" y1="228.09" x2="11.77" y2="228.09"/>
        <line class="cls-7" x1="31.85" y1="228.09" x2="1468.09" y2="228.09"/>
        <line class="cls-4" x1="1478.13" y1="228.09" x2="1488.13" y2="228.09"/>
      </g>
      <g>
        <line class="cls-4" x1="1.77" y1="364.55" x2="11.77" y2="364.55"/>
        <line class="cls-7" x1="31.85" y1="364.55" x2="1468.09" y2="364.55"/>
        <line class="cls-4" x1="1478.13" y1="364.55" x2="1488.13" y2="364.55"/>
      </g>
      <g>
        <line class="cls-4" x1="1.77" y1="744.95" x2="11.77" y2="744.95"/>
        <line class="cls-7" x1="31.85" y1="744.95" x2="1468.09" y2="744.95"/>
        <line class="cls-4" x1="1478.13" y1="744.95" x2="1488.13" y2="744.95"/>
      </g>
      <g>
        <line class="cls-4" x1="1.77" y1="1125.35" x2="11.77" y2="1125.35"/>
        <line class="cls-7" x1="31.85" y1="1125.35" x2="1468.09" y2="1125.35"/>
        <line class="cls-4" x1="1478.13" y1="1125.35" x2="1488.13" y2="1125.35"/>
      </g>
      <g>
        <line class="cls-4" x1="1.77" y1="1261.81" x2="11.77" y2="1261.81"/>
        <line class="cls-7" x1="31.85" y1="1261.81" x2="1468.09" y2="1261.81"/>
        <line class="cls-4" x1="1478.13" y1="1261.81" x2="1488.13" y2="1261.81"/>
      </g>
      <g>
        <line class="cls-4" x1="1261.81" y1="1.77" x2="1261.81" y2="11.77"/>
        <line class="cls-5" x1="1261.81" y1="31.86" x2="1261.81" y2="1468.09"/>
        <line class="cls-4" x1="1261.81" y1="1478.13" x2="1261.81" y2="1488.13"/>
      </g>
      <g>
        <line class="cls-4" x1="1125.88" y1="1.77" x2="1125.88" y2="11.77"/>
        <line class="cls-5" x1="1125.88" y1="31.86" x2="1125.88" y2="1468.09"/>
        <line class="cls-4" x1="1125.88" y1="1478.13" x2="1125.88" y2="1488.13"/>
      </g>
      <g>
        <line class="cls-4" x1="228.09" y1="1.77" x2="228.09" y2="11.77"/>
        <line class="cls-5" x1="228.09" y1="31.86" x2="228.09" y2="1468.09"/>
        <line class="cls-4" x1="228.09" y1="1478.13" x2="228.09" y2="1488.13"/>
      </g>
      <g>
        <line class="cls-4" x1="364.02" y1="1.77" x2="364.02" y2="11.77"/>
        <line class="cls-5" x1="364.02" y1="31.86" x2="364.02" y2="1468.09"/>
        <line class="cls-4" x1="364.02" y1="1478.13" x2="364.02" y2="1488.13"/>
      </g>
    </g>
    <g>
      <g>
        <polyline class="cls-4" points="238.09 1868.98 228.09 1868.98 228.09 1878.98"/>
        <line class="cls-2" x1="228.09" y1="1898.86" x2="228.09" y2="2882.77"/>
        <polyline class="cls-4" points="228.09 2892.71 228.09 2902.71 238.09 2902.71"/>
        <line class="cls-6" x1="257.96" y1="2902.71" x2="1241.88" y2="2902.71"/>
        <polyline class="cls-4" points="1251.81 2902.71 1261.81 2902.71 1261.81 2892.71"/>
        <line class="cls-2" x1="1261.81" y1="2872.83" x2="1261.81" y2="1888.92"/>
        <polyline class="cls-4" points="1261.81 1878.98 1261.81 1868.98 1251.81 1868.98"/>
        <line class="cls-6" x1="1231.94" y1="1868.98" x2="248.02" y2="1868.98"/>
      </g>
      <g>
        <polyline class="cls-4" points="1125.79 2375.85 1125.79 2385.85 1115.79 2385.85"/>
        <line class="cls-1" x1="1096.8" y1="2385.85" x2="764.45" y2="2385.85"/>
        <polyline class="cls-4" points="754.96 2385.85 744.96 2385.85 752.03 2392.92"/>
        <line class="cls-8" x1="766.69" y1="2407.59" x2="1111.39" y2="2752.29"/>
        <polyline class="cls-4" points="1118.73 2759.62 1125.79 2766.69 1125.79 2766.7 1115.79 2766.7"/>
        <line class="cls-10" x1="1095.75" y1="2766.7" x2="384.12" y2="2766.7"/>
        <polyline class="cls-4" points="374.1 2766.7 364.1 2766.7 364.1 2756.7"/>
        <line class="cls-10" x1="364.1" y1="2736.65" x2="364.1" y2="2025.03"/>
        <polyline class="cls-4" points="364.1 2015.01 364.1 2005.01 374.1 2005.01"/>
        <line class="cls-10" x1="394.14" y1="2005.01" x2="1105.77" y2="2005.01"/>
        <polyline class="cls-4" points="1115.79 2005.01 1125.79 2005.01 1125.79 2015.01"/>
        <line class="cls-3" x1="1125.79" y1="2034" x2="1125.79" y2="2366.36"/>
      </g>
    </g>
  </g>
</svg>