<svg viewBox="0 0 762.53 200" xmlns="http://www.w3.org/2000/svg" data-name="logo"><path fill="#fff" d="M282.63 25h-37.52v86.4h16.29V78.81h22.71c4.81 0 6.67 2.72 6.67 6.67v25.92h16.29V83.13c0-6.91-3.83-11.36-10.37-11.73v-2.22c7.28-2.96 12.84-9.26 12.84-19.63v-1.48c0-13.95-10.74-23.08-26.91-23.08Zm10.62 27.52c0 6.91-4.69 11.48-12.34 11.48h-19.5V39.81h19.5c7.9 0 12.34 4.57 12.34 11.48zm46.16 22.72h35.8V60.42h-35.8V39.81h39.25V25h-55.54v86.4h56.28V96.59h-39.99zM391.5 25h16.29v86.4H391.5zm82.94 75.29h-2.22L455.07 25h-30.98v86.4h16.04V36.11h2.22l17.16 75.29h30.98V25h-16.05zm79.74 0h-2.22L537.03 25h-30.24v86.4h15.79V36.97h2.23l14.81 74.43h26.9l14.82-74.43h2.22v74.43h15.8V25h-30.24zM632.44 25l-22.71 86.4h16.79l4.69-19.01h30.86l4.69 19.01h16.79L660.84 25h-28.39Zm2.59 52.33 10.49-42.09h2.22l10.49 42.09zm102.2-9.5L762.29 25h-18.52l-17.15 31.23h-2.23L707.24 25h-18.52l25.06 42.83-25.3 43.57h18.51l17.4-31.97h2.23l17.4 31.97h18.51zm-480.8 77.95c-6.98 0-11.32 4.01-11.32 11.24v6.74c0 7.22 4.33 11.24 11.32 11.24s10.84-4.01 10.84-10.6v-.56h-5.22v.72c0 3.29-1.85 5.7-5.62 5.7s-6.02-2.49-6.02-6.42v-6.9c0-3.93 2.25-6.42 6.02-6.42s5.62 2.41 5.62 5.7v.4h5.22v-.24c0-6.58-3.93-10.6-10.84-10.6m27.37.56h-12.2v28.09h5.3v-10.6h7.38c1.57 0 2.17.88 2.17 2.17v8.43h5.3v-9.19c0-2.25-1.24-3.69-3.37-3.81v-.72c2.37-.96 4.17-3.01 4.17-6.38v-.48c0-4.54-3.49-7.51-8.75-7.51m3.45 8.95c0 2.25-1.52 3.73-4.01 3.73h-6.34v-7.87h6.34c2.57 0 4.01 1.49 4.01 3.73v.4Zm15.01 7.39h11.64v-4.82h-11.64v-6.7h12.76v-4.82h-18.06v28.1h18.3v-4.82h-13zm22.39-16.34-7.38 28.09h5.46l1.52-6.18h10.03l1.52 6.18h5.46l-7.38-28.09zm.85 17.02 3.41-13.69h.72l3.41 13.69h-7.55Zm14.88-12.2h8.19v23.28h5.3v-23.28h8.19v-4.82h-21.68zm25.29-4.82h5.3v28.09h-5.3zm20.63 24.69h-.57l-5.94-24.69h-5.45l7.14 28.1h9.07l7.14-28.1h-5.45zm20.06-8.35H418v-4.82h-11.64v-6.7h12.77v-4.82h-18.07v28.1h18.31v-4.82h-13.01zm43.95-8.15h-5.06v3.61h-3.89c-2.25 0-4.17-1.12-4.17-3.81 0-2.53 1.77-3.81 4.17-3.81h3.45v-4.17h-4.37c-4.82 0-8.31 2.65-8.31 7.55 0 3.29 1.89 5.22 4.58 6.02v.56c-2.69.8-4.74 2.97-4.74 6.38 0 4.74 3.33 7.59 8.31 7.59h10.03v-12.12H454v-4.17h-3.69v-3.61Zm-5.06 15.73h-4.05c-2.21 0-4.17-1.28-4.17-3.97s1.81-3.97 4.17-3.97h4.05v7.95Zm32.91-23.92H466.6V151h3.69v18.78h-3.69v4.66h11.56c7.55 0 11.56-3.85 11.56-11.4v-5.3c0-7.55-4.01-11.4-11.56-11.4m6.26 16.86c0 4.09-1.93 6.42-6.18 6.42h-2.65v-18.46h2.65c4.25 0 6.18 2.33 6.18 6.42zm15.01-.52h11.64v-4.82h-11.64v-6.7h12.76v-4.82h-18.06v28.1h18.3v-4.82h-13zm27.37-4.86-.92-.2c-3.37-.72-4.94-1.73-4.94-3.81s1.49-3.37 4.7-3.37 5.18 1.28 5.18 4.5v1.2h5.22v-1.2c0-6.1-4.37-9.15-10.39-9.15s-9.91 3.05-9.91 8.19 3.41 7.1 9.23 8.39l.92.2c3.61.8 5.66 1.61 5.66 3.93s-1.81 3.85-5.42 3.85-5.82-1.69-5.82-5.06v-1.12h-5.22v1.12c0 6.1 4.54 9.71 11.04 9.71s10.64-3.53 10.64-8.67-3.97-7.22-9.95-8.51Zm13.88-11.48h5.3v28.09h-5.3zm21.27-.56c-6.98 0-11.32 4.01-11.32 11.24v6.74c0 7.22 4.58 11.24 10.35 11.24 4.33 0 5.62-1.89 6.18-3.25h.72v2.69h4.9v-14.37H560.9v4.49h6.66v.4c0 3.13-1.69 5.38-5.54 5.38s-6.1-2.57-6.1-6.5v-6.9c0-3.93 2.25-6.42 6.02-6.42s5.62 2.33 5.62 5.3v.32h5.22v-.16c0-6.26-3.93-10.19-10.84-10.19Zm32.27 25.05h-.72l-5.58-24.49h-10.08v28.1h5.22v-24.48h.72l5.58 24.48h10.08v-28.1h-5.22zm25.68-24.49-7.39 28.09h5.46l1.52-6.18h10.03l1.52 6.18h5.46l-7.38-28.09h-9.23Zm.85 17.02 3.41-13.69h.72l3.41 13.69h-7.55Zm29.57-17.58c-6.98 0-11.32 4.01-11.32 11.24v6.74c0 7.22 4.58 11.24 10.36 11.24 4.33 0 5.62-1.89 6.18-3.25h.72v2.69h4.9v-14.37h-11.88v4.49h6.66v.4c0 3.13-1.69 5.38-5.54 5.38s-6.1-2.57-6.1-6.5v-6.9c0-3.93 2.25-6.42 6.02-6.42s5.62 2.33 5.62 5.3v.32h5.22v-.16c0-6.26-3.93-10.19-10.84-10.19Zm21.19 16.9h11.64v-4.82h-11.64v-6.7h12.77v-4.82h-18.07v28.1h18.31v-4.82h-13.01zm33.31 8.15h-.72l-5.58-24.49h-10.07v28.1h5.22v-24.48h.72l5.58 24.48h10.07v-28.1h-5.22zm21.19-25.05c-6.98 0-11.32 4.01-11.32 11.24v6.74c0 7.22 4.33 11.24 11.32 11.24s10.84-4.01 10.84-10.6v-.56h-5.22v.72c0 3.29-1.85 5.7-5.62 5.7s-6.02-2.49-6.02-6.42v-6.9c0-3.93 2.25-6.42 6.02-6.42s5.62 2.41 5.62 5.7v.4h5.22v-.24c0-6.58-3.93-10.6-10.84-10.6m30.62.56-5.94 12.04h-.72l-5.94-12.04h-5.9l9.55 18.43v9.67h5.3v-9.67l9.55-18.43zM0 0v200h200V0zm175 100h-75l75 75H25V25h150z"/></svg>