<svg data-name="Layer 1" xmlns="http://www.w3.org/2000/svg" viewBox="0 0 186.91 25"><path d="M45.33 14.72H35.05V0h-6.78v25h6.78v-5.61h10.28V25h7.01V0h-7.01zM57.94 0h7.24v25h-7.24zm123.13 0h-11.68c-3.27 0-5.84 2.57-5.84 5.84v13.32c0 3.27 2.57 5.84 5.84 5.84h11.68c3.27 0 5.84-2.57 5.84-5.84V5.84c0-3.27-2.57-5.84-5.84-5.84m-1.17 18.22c0 1.4-1.17 2.8-2.8 2.8h-3.97c-1.4 0-2.8-1.4-2.8-2.8V7.01c0-1.64 1.4-2.8 2.8-2.8h3.97c1.64 0 2.8 1.17 2.8 2.8v11.22ZM17.06 9.58H8.88c-1.87 0-2.34-1.64-2.34-3.04 0-2.57 2.1-2.34 4.44-2.34h12.38V0H5.37C4.9 0 3.97.23 3.5.23 1.17 1.17 0 3.97 0 7.01c0 3.74 1.17 7.94 5.37 7.94h9.58c1.64 0 2.57 1.4 2.8 2.57.23 1.64-.7 3.27-2.8 3.27H.7V25h17.99c.47 0 1.4-.23 1.87-.47 2.34-1.17 3.27-3.5 3.5-5.84v-2.1c-.23-4.91-1.64-7.01-7.01-7.01ZM125.7 0h-12.85c-3.74 0-5.61 3.27-5.61 6.78V25h6.78v-5.37H125V25h7.01V7.01c0-4.67-2.57-7.01-6.31-7.01m-.71 14.95h-10.74V7.24c0-2.1 1.64-3.04 2.34-3.04h5.61c1.4 0 2.8 1.17 2.8 3.04v7.71ZM152.8 0h-16.82v25h7.01V4.21h6.54c2.34 0 3.04 2.34 3.04 4.21v16.59h7.01V6.78c0-4.21-2.57-6.78-6.78-6.78M97.43 0H70.8v25h6.78V4.21h6.07V25h6.54V3.97h2.8c1.4.23 3.27.47 3.27 3.5v17.52h6.78V7.94c0-3.74.23-7.71-5.61-7.94" style="fill:#0066b3"/></svg>