<svg class="tfg2i" xmlns="http://www.w3.org/2000/svg" viewBox="0 0 32 32" width="32" height="32"><path d="m29.895 13.293.007.006c1.46 1.433 1.462 3.92.02 5.385l-.014.014-.002.002-.003.003-.024.023-1.136 1.136a3.4 3.4 0 0 0-.998 2.405v1.647a3.824 3.824 0 0 1-3.82 3.817h-1.649a3.4 3.4 0 0 0-2.404.995L18.72 29.88c-1.494 1.496-3.906 1.489-5.41.014l-1.165-1.166a3.4 3.4 0 0 0-2.405-.995H8.09a3.824 3.824 0 0 1-3.819-3.818v-1.647c0-.912-.365-1.767-.985-2.408l-.008-.01-.01-.008L2.12 18.71l-.002-.002a3.834 3.834 0 0 1-.012-5.4l1.167-1.168a3.4 3.4 0 0 0 .997-2.419V8.089a3.82 3.82 0 0 1 3.82-3.815h1.65a3.4 3.4 0 0 0 2.403-.998l1.153-1.152.003-.003c1.48-1.49 3.905-1.495 5.406-.01l.001.002 1.166 1.163a3.4 3.4 0 0 0 2.404.998h1.65a3.82 3.82 0 0 1 3.819 3.815v1.65c0 .907.364 1.768.998 2.401zm.018 5.4Z" fill="#007fff" stroke="#fff" stroke-width="2"/><path d="M14 20.983 9.717 16.7l1.683-1.683 2.6 2.6 6.6-6.6 1.683 1.683z" fill="#fff"/></svg>