<?xml version="1.0" encoding="UTF-8"?>
<svg id="Layer_2" data-name="Layer 2" xmlns="http://www.w3.org/2000/svg" viewBox="0 0 334.56 74.18">
  <defs>
    <style>
      .cls-1 {
        fill: #8ab4ff;
      }
    </style>
  </defs>
  <g id="Layer_1-2" data-name="Layer 1">
    <g>
      <path class="cls-1" d="M119.53,16.77c-1.43,0-2.47.88-3.13,2.53l-8.79,23.39h-.33l-8.73-23.39c-.66-1.65-1.76-2.53-3.18-2.53-1.76,0-2.64,1.26-2.64,3.35v34.76c0,1.15.82,2.53,2.53,2.53,1.81,0,2.64-1.37,2.64-2.53l-.05-8.95c0-5.77-.11-11.15-.55-17.02h.27c.55,2.25,3.35,9.56,3.68,10.49l3.57,9.72c.6,1.65,1.76,1.87,2.64,1.87.93,0,2.03-.22,2.69-1.87l3.51-9.72c.88-2.31,3.07-8.13,3.68-10.49h.27c-.38,6.26-.44,7.96-.49,17.02l-.05,8.95c0,1.15.88,2.53,2.53,2.53,1.76,0,2.64-1.37,2.64-2.53V20.12c0-2.09-.88-3.35-2.69-3.35Z"/>
      <path class="cls-1" d="M147.42,21.99c1.59,0,2.47-1.15,2.47-2.36s-.88-2.31-2.47-2.31h-14.06c-1.76,0-2.64,1.32-2.64,2.47v34.6c0,1.15.88,2.47,2.64,2.47h14.06c1.59,0,2.47-1.1,2.47-2.36,0-1.15-.88-2.31-2.47-2.31h-11.53v-13.01h8.57c1.59,0,2.47-1.1,2.47-2.31s-.88-2.36-2.47-2.36h-8.57v-12.52h11.53Z"/>
      <path class="cls-1" d="M173.67,35.44h-6.31c-1.54,0-2.42,1.1-2.42,2.31s.82,2.25,2.14,2.31h3.95v7.03c0,3.84-2.64,5.66-5.49,5.66s-5.49-1.81-5.49-5.66v-19.99c0-3.84,2.75-5.66,5.55-5.66,2.42,0,4.06,1.15,4.72,3.18l.16.55c.38,1.32.93,2.42,2.58,2.42s2.58-1.15,2.58-2.31v-.33c0-3.84-3.4-8.18-10.16-8.18s-10.6,4.28-10.6,9.99v20.7c0,5.66,4.17,9.94,10.71,9.94s10.6-4.28,10.6-9.94v-9.61c0-1.21-.88-2.42-2.53-2.42Z"/>
      <path class="cls-1" d="M195.69,18.91c-.38-1.32-1.43-2.14-2.64-2.14-1.1,0-2.14.82-2.58,2.14l-10.16,34.98c-.66,2.14.66,3.51,2.42,3.51,1.04,0,2.14-.44,2.58-2.03l1.98-7.47h11.53l2.03,7.47c.44,1.59,1.54,2.03,2.58,2.03,1.76,0,3.02-1.43,2.42-3.51l-10.16-34.98ZM188.55,43.35l2.8-10.43c.44-1.59,1.15-4.39,1.59-6.97h.22c.49,2.58,1.15,5.38,1.59,6.97l2.8,10.43h-9.01Z"/>
      <path class="cls-1" d="M220.51,16.77c-6.21,0-10.16,4.01-10.16,9.83,0,4.83,2.69,7.3,5,9.17l7.14,5.93c1.43,1.15,2.86,3.13,2.86,5.88,0,3.68-2.53,5.27-5.49,5.27-2.53,0-4.67-1.15-5.33-4.45l-.33-1.65c-.27-1.37-1.1-2.42-2.58-2.42-1.7,0-2.8,1.48-2.31,3.57l.33,1.54c.93,3.95,3.9,7.96,10.27,7.96s10.49-3.9,10.49-10.16c0-5.05-2.64-7.63-3.73-8.57l-8.9-7.36c-1.21-.99-2.36-2.53-2.36-4.89,0-3.29,2.2-5.11,5.11-5.11,2.25,0,4.01,1.15,4.67,3.35l.22.55c.38,1.26.99,2.36,2.58,2.36s2.42-1.1,2.42-2.25v-.33c0-3.9-3.51-8.24-9.88-8.24Z"/>
      <path class="cls-1" d="M255.16,43.35c-1.7,0-2.53,1.37-2.53,2.53v1.26c0,3.9-2.8,5.6-5.55,5.6s-5.49-1.7-5.49-5.6v-20.1c0-3.79,2.64-5.6,5.6-5.6,2.36,0,4.01,1.1,4.61,3.18l.16.55c.38,1.26,1.04,2.42,2.69,2.42s2.53-1.15,2.53-2.31v-.33c0-3.84-3.4-8.18-10.05-8.18s-10.71,4.28-10.71,9.99v20.7c0,5.66,4.17,9.94,10.65,9.94s10.71-4.28,10.71-9.94v-1.59c0-1.15-.93-2.53-2.64-2.53Z"/>
      <path class="cls-1" d="M276.57,18.91c-.38-1.32-1.43-2.14-2.64-2.14-1.1,0-2.14.82-2.58,2.14l-10.16,34.98c-.66,2.14.66,3.51,2.42,3.51,1.04,0,2.14-.44,2.58-2.03l1.98-7.47h11.53l2.03,7.47c.44,1.59,1.54,2.03,2.58,2.03,1.76,0,3.02-1.43,2.42-3.51l-10.16-34.98ZM269.43,43.35l2.8-10.43c.44-1.59,1.15-4.39,1.59-6.97h.22c.49,2.58,1.15,5.38,1.59,6.97l2.8,10.43h-9.01Z"/>
      <path class="cls-1" d="M307.71,52.19h-10.54V19.3c0-1.15-.88-2.53-2.64-2.53-1.65,0-2.53,1.37-2.53,2.53v35.15c0,1.21.88,2.42,2.53,2.42h13.18c1.54,0,2.42-1.1,2.42-2.36,0-1.15-.88-2.31-2.42-2.31Z"/>
      <path class="cls-1" d="M332.09,52.19h-11.53v-13.01h8.57c1.59,0,2.47-1.1,2.47-2.31s-.88-2.36-2.47-2.36h-8.57v-12.52h11.53c1.59,0,2.47-1.15,2.47-2.36s-.88-2.31-2.47-2.31h-14.06c-1.76,0-2.64,1.32-2.64,2.47v34.6c0,1.15.88,2.47,2.64,2.47h14.06c1.59,0,2.47-1.1,2.47-2.36,0-1.15-.88-2.31-2.47-2.31Z"/>
      <path class="cls-1" d="M51.86,0h-29.53C10,0,0,10,0,22.33v29.53c0,12.33,10,22.33,22.33,22.33h29.53c12.33,0,22.33-10,22.33-22.33v-29.53c0-12.33-10-22.33-22.33-22.33ZM35.82,51.69c0,3.16-2.56,5.71-5.71,5.71h-7.62c-3.16,0-5.71-2.56-5.71-5.71v-7.62c0-3.16,2.56-5.71,5.71-5.71h7.62c.63,0,1.25.11,1.85.31l6.62-6.66h-3.92c-1.34.03-2.48-.96-2.65-2.29,0-.09-.01-.17-.01-.26,0-1.4,1.15-2.53,2.55-2.53h6.35c3.51,0,6.35,2.84,6.35,6.35v6.24c.03,1.34-.96,2.48-2.29,2.65-.09,0-.17.01-.26.01-1.4,0-2.53-1.15-2.53-2.55v-4.03l-6.64,6.67c.19.58.29,1.19.29,1.8v7.62ZM57.41,45.35c0,4.91-3.98,8.89-8.89,8.89h-5.08c-.09,0-.17,0-.26-.01-1.4-.14-2.42-1.38-2.28-2.78.17-1.33,1.31-2.32,2.65-2.29h4.97c2.1,0,3.81-1.71,3.81-3.81v-19.68c0-2.1-1.71-3.81-3.81-3.81h-19.68c-2.1,0-3.81,1.71-3.81,3.81v5.08c0,.09,0,.17-.01.26-.14,1.4-1.38,2.42-2.78,2.28-1.33-.17-2.32-1.31-2.29-2.65v-4.97c0-4.91,3.98-8.89,8.89-8.89h19.68c4.91,0,8.89,3.98,8.89,8.89v19.68Z"/>
      <rect class="cls-1" x="21.85" y="43.44" width="8.89" height="8.89" rx=".63" ry=".63"/>
    </g>
  </g>
</svg>